<?xml version="1.0" encoding="UTF-8"?>
<svg data-bbox="0.002 0 37 61.001" xmlns="http://www.w3.org/2000/svg" viewBox="0 0 37 61" height="61" width="37" data-type="color">
    <g>
        <g clip-path="url(#01329ee9-d61a-4b37-9097-24f34090dc7e)">
            <path fill="#ffffff" d="M11.798 56.743c.2.041.407.002.577-.11a.78.78 0 0 0 .334-.486l.045-.21c.076-.356-.115-.697-.415-.898-.195-.132-.725-.467-2.435-1.443-2.869-1.642-5.783-4.102-8.355-8.159-.456-.718-1.648-.362-1.54.483.694 5.467 2.134 9.42 4.874 14.67.343.658 1.31.487 1.42-.247l.25-1.655c.169-1.362.675-2.074 1.266-2.214 1.203-.286 2.072-.13 3.98.269Zm20.365-2.744c3.226-2.804 4.839-6.608 4.839-11.414 0-6.529-4.636-11.544-13.907-15.044l-6.604-2.507c-4.144-1.515-7.148-3.16-9.012-4.936-1.814-1.827-2.72-4.073-2.72-6.738 0-1.79.432-3.369 1.297-4.734.37-.583-.006-1.456-.693-1.456h-.087a.745.745 0 0 0-.499.19C2.072 9.79.72 12.965.72 16.885c0 3.604 1.217 6.633 3.651 9.088 2.435 2.456 5.516 4.388 9.246 5.799l6.448 2.428c8.287 3.03 12.43 7.34 12.43 12.928 0 2.09-.58 3.965-1.742 5.627-.395.565-.026 1.425.66 1.425h.26a.75.75 0 0 0 .491-.182ZM23.45 4.258a.766.766 0 0 0-.577.109.778.778 0 0 0-.334.487l-.045.209c-.076.357.116.697.415.899.196.131.728.467 2.436 1.443 2.869 1.641 5.783 4.102 8.355 8.158.455.718 1.648.362 1.54-.483-.692-5.467-2.133-9.42-4.874-14.67-.343-.658-1.309-.488-1.42.248l-.25 1.654c-.168 1.363-.675 2.074-1.266 2.215-1.203.284-2.072.13-3.98-.27Z" clip-rule="evenodd" fill-rule="evenodd" data-color="1"/>
        </g>
        <defs fill="none">
            <clipPath id="01329ee9-d61a-4b37-9097-24f34090dc7e">
                <path fill="#ffffff" d="M37 0v61H0V0h37z"/>
            </clipPath>
        </defs>
    </g>
</svg>
